# xmcd
# 
# Track frame offsets:
#     150
#     16401
#     47080
#     61200
#     71151
#     85781
#     94885
#     106806
#     120922
#     135504
#     147744
#     158476
#     172549
#     184523
#     194863
#     206150
#     218176
#     229363
#     241398
#     257966
# 
# Disc length: 3630
# 
# Revision: 1
# Processed by: cddbd v1.5.2PL0 Copyright (c) Steve Scherf et al.
# Submitted via: fre:ac v1.1beta1pre5
# 
DISCID=1f0e2c14
DTITLE=Various Artist - Stars Of American Songbook CD3
DYEAR=2017
DGENRE=Pop
TTITLE0=Ray Charles - Georgia On My Mind
TTITLE1=Louis Armstrong - On The Sunny Side Of The Street
TTITLE2=Sammy Davis Jr. - My Funny Valentine
TTITLE3=Julie London - Mad About The Boy
TTITLE4=Sarah Vaughan - Summertime
TTITLE5=Julie Andrews - Cheek To Cheek
TTITLE6=The Platters - Smoke Gets In Your Eyes
TTITLE7=Dean Martin - That's Amore
TTITLE8=Tony Bennett - Solitaire
TTITLE9=Vic Damone - On The Street Where You Live
TTITLE10=Paul Anka - Diana
TTITLE11=Doris Day - Autumn Leaves
TTITLE12=Frank Sinatra - Love And Marriage
TTITLE13=Neil Sedaka - Oh Carol
TTITLE14=Patsy Cline - Just Out Of Reach
TTITLE15=Johnny Ray - Just Walkin' In The Rain
TTITLE16=Donald O'Connor - Make Em Laugh
TTITLE17=Perry Como - Magic Moments
TTITLE18=Frank Sinatra - Night And Day
TTITLE19=Nat King Cole - Unforgetable
EXTD=Corrected 27/06/2017
EXTT0=
EXTT1=
EXTT2=
EXTT3=
EXTT4=
EXTT5=
EXTT6=
EXTT7=
EXTT8=
EXTT9=
EXTT10=
EXTT11=
EXTT12=
EXTT13=
EXTT14=
EXTT15=
EXTT16=
EXTT17=
EXTT18=
EXTT19=
PLAYORDER=
